# xmcd
#
# Track frame offsets: 
#        150
#        17471
#        36167
#        52786
#        70994
#        88050
#        106685
#        122572
#        138756
#        157338
#        174602
#        193300
#        209077
#        223945
#
# Disc length: 3215 seconds
#
# Revision: 0
# Processed by: cddbd v1.5.2PL0 Copyright (c) Steve Scherf et al.
# Submitted via: ExactAudioCopy v1.0b1
#
DISCID=cc0c8d0e
DTITLE=The Sunny Cowgirls - What We Do
DYEAR=2013
DGENRE=Country
TTITLE0=Green And Gold
TTITLE1=Good Way
TTITLE2=One More Run
TTITLE3=Kids Forever
TTITLE4=All Nighter
TTITLE5=Like Her
TTITLE6=Gonna Drive
TTITLE7=Go You Good Thing
TTITLE8=Winter Blues
TTITLE9=Bring Your 'A' Game
TTITLE10=What We Do
TTITLE11=Blue Desert
TTITLE12=Celebrate
TTITLE13=Thank You
EXTD=
EXTT0=
EXTT1=
EXTT2=
EXTT3=
EXTT4=
EXTT5=
EXTT6=
EXTT7=
EXTT8=
EXTT9=
EXTT10=
EXTT11=
EXTT12=
EXTT13=
PLAYORDER=
